<svg width="1291" height="719" fill="none" xmlns="http://www.w3.org/2000/svg"><path d="M1 30C1 13.431 14.431 0 31 0h1217.48c20.73 0 35.21 20.528 28.26 40.06l-147.51 414.443a51 51 0 01-37.45 32.786L37.234 711.303C18.573 715.267 1 701.035 1 681.958V30z" fill="#CCEAFB"/><path d="M2 30C2 13.431 15.431 0 32 0h1207.37c20.76 0 35.25 20.584 28.24 40.128l-145.99 407.061a51.013 51.013 0 01-37.49 32.686L38.188 700.371C19.54 704.302 2 690.075 2 671.016V30z" fill="url(#prefix__paint0_linear)"/><mask id="prefix__a" maskUnits="userSpaceOnUse" x="0" y="0" width="1268" height="702"><path d="M0 30C0 13.431 13.431 0 30 0h1207.37c20.76 0 35.25 20.584 28.24 40.128l-145.99 407.061a51.013 51.013 0 01-37.49 32.686L36.188 700.371C17.54 704.302 0 690.075 0 671.016V30z" fill="url(#prefix__paint1_linear)"/></mask><g mask="url(#prefix__a)"><rect x="-35.445" y="513" width="244" height="244" rx="50" transform="rotate(14.612 -35.445 513)" fill="#fff" fill-opacity=".1"/><rect x="33.782" y="-193" width="244" height="244" rx="40" transform="rotate(19.832 33.782 -193)" fill="#fff" fill-opacity=".1"/><rect x=".315" y="1.379" width="380.062" height="380.144" rx="49" transform="rotate(32.168 -705.97 248.745) skewX(.031)" stroke="#fff" stroke-opacity=".1" stroke-width="2"/><rect x=".681" y="1.24" width="380.062" height="380.144" rx="49" transform="rotate(16.226 1376.789 114.92) skewX(.031)" stroke="#fff" stroke-opacity=".1" stroke-width="2"/><path d="M756.814 603.122l18.472-178.23c2.285-22.052 26.901-34.075 45.728-22.335l150.782 94.02c19.914 12.418 18.513 41.838-2.491 52.288l-169.254 84.21c-21.18 10.538-45.675-6.431-43.237-29.953z" fill="#fff" fill-opacity=".1"/><path d="M707.11 492.842l19.373-186.928c2.286-22.052 26.901-34.076 45.728-22.336l158.141 98.609c19.915 12.418 18.514 41.838-2.49 52.288l-177.515 88.32c-21.18 10.538-45.675-6.431-43.237-29.953z" stroke="#fff" stroke-opacity=".1"/></g><defs><linearGradient id="prefix__paint0_linear" x1="1170" y1="354" x2="11" y2="354" gradientUnits="userSpaceOnUse"><stop offset=".438" stop-color="#0096EB"/><stop offset="1" stop-color="#0096EB" stop-opacity=".52"/></linearGradient><linearGradient id="prefix__paint1_linear" x1="1168" y1="354" x2="9" y2="354" gradientUnits="userSpaceOnUse"><stop offset=".438" stop-color="#0096EB"/><stop offset="1" stop-color="#0096EB" stop-opacity=".52"/></linearGradient></defs></svg>