<svg width="194" height="92" fill="none" xmlns="http://www.w3.org/2000/svg"><g filter="url(#prefix__filter0_d)"><g filter="url(#prefix__filter1_d)"><rect x="18" y="18.393" width="154" height="51" rx="6" fill="#0096EB"/></g><path d="M81.592 40.623c-.939 0-1.677.332-2.215.998-.538.665-.807 1.583-.807 2.755 0 1.225.258 2.153.773 2.782.52.629 1.269.943 2.249.943.424 0 .834-.04 1.23-.123.397-.087.81-.196 1.238-.328v1.401c-.784.296-1.673.445-2.666.445-1.463 0-2.587-.443-3.37-1.327-.784-.888-1.176-2.157-1.176-3.807 0-1.04.189-1.948.567-2.728a4.095 4.095 0 011.654-1.79c.72-.416 1.566-.623 2.537-.623 1.02 0 1.964.214 2.83.643l-.588 1.36a8.337 8.337 0 00-1.074-.417 3.758 3.758 0 00-1.182-.184zm11.156 4.942c0 1.235-.317 2.199-.95 2.892-.634.692-1.515 1.039-2.646 1.039-.706 0-1.33-.16-1.873-.479a3.16 3.16 0 01-1.25-1.374c-.292-.597-.438-1.29-.438-2.078 0-1.226.314-2.183.943-2.871.63-.688 1.515-1.032 2.66-1.032 1.093 0 1.959.353 2.597 1.06.638.701.957 1.649.957 2.843zm-5.503 0c0 1.745.645 2.618 1.935 2.618 1.276 0 1.914-.873 1.914-2.618 0-1.727-.643-2.59-1.928-2.59-.674 0-1.164.222-1.47.669-.3.447-.45 1.087-.45 1.92zm11.19-3.903c.324 0 .59.022.8.068l-.157 1.497a3.035 3.035 0 00-.71-.082c-.643 0-1.165.21-1.566.629-.397.42-.595.964-.595 1.634v3.95h-1.606v-7.56h1.257l.212 1.333h.082c.251-.45.577-.809.978-1.073.406-.264.84-.396 1.306-.396zm8.915 3.903c0 1.235-.317 2.199-.951 2.892-.633.692-1.515 1.039-2.645 1.039-.706 0-1.331-.16-1.873-.479a3.163 3.163 0 01-1.251-1.374c-.292-.597-.438-1.29-.438-2.078 0-1.226.315-2.183.944-2.871.629-.688 1.515-1.032 2.659-1.032 1.094 0 1.96.353 2.598 1.06.638.701.957 1.649.957 2.843zm-5.503 0c0 1.745.645 2.618 1.934 2.618 1.276 0 1.914-.873 1.914-2.618 0-1.727-.642-2.59-1.927-2.59-.675 0-1.165.222-1.47.669-.301.447-.451 1.087-.451 1.92zm14.007 3.794h-1.614V44.71c0-.583-.118-1.018-.355-1.305-.233-.287-.604-.43-1.114-.43-.68 0-1.176.2-1.491.6-.314.402-.471 1.074-.471 2.017v3.767h-1.607v-7.56h1.258l.226.99h.082a2.23 2.23 0 01.97-.833c.42-.196.884-.294 1.395-.294 1.814 0 2.721.922 2.721 2.768v4.929zm6.965 0l-.321-1.053h-.055c-.364.46-.731.775-1.1.944-.369.164-.843.246-1.422.246-.743 0-1.324-.2-1.743-.602-.415-.401-.622-.968-.622-1.702 0-.78.289-1.367.868-1.764.579-.396 1.46-.613 2.645-.65l1.306-.04v-.404c0-.483-.114-.843-.342-1.08-.223-.241-.572-.362-1.046-.362-.387 0-.758.057-1.114.171a8.427 8.427 0 00-1.025.403l-.52-1.148c.41-.214.859-.376 1.347-.485.487-.114.948-.171 1.381-.171.961 0 1.686.21 2.173.629.493.419.739 1.077.739 1.975v5.093h-1.149zm-2.392-1.094c.583 0 1.05-.162 1.401-.485.356-.328.533-.786.533-1.374v-.657l-.97.041c-.757.028-1.308.156-1.655.383-.341.224-.512.568-.512 1.033 0 .337.1.599.3.786.201.182.502.273.903.273zm7.389 1.094h-1.606v-7.56h1.606v7.56zm-1.702-9.564c0-.287.078-.508.233-.663.159-.155.385-.232.676-.232.283 0 .502.077.657.232.159.155.239.376.239.663 0 .274-.08.49-.239.65-.155.155-.374.232-.657.232-.291 0-.517-.077-.676-.232-.155-.16-.233-.376-.233-.65zm10.657 9.564h-1.613V44.71c0-.583-.118-1.018-.355-1.305-.233-.287-.604-.43-1.115-.43-.679 0-1.175.2-1.49.6-.314.402-.471 1.074-.471 2.017v3.767h-1.607v-7.56h1.258l.226.99h.082a2.23 2.23 0 01.97-.833c.42-.196.884-.294 1.395-.294 1.814 0 2.72.922 2.72 2.768v4.929zm6.966 0l-.321-1.053h-.055c-.364.46-.731.775-1.1.944-.369.164-.843.246-1.422.246-.743 0-1.324-.2-1.743-.602-.415-.401-.622-.968-.622-1.702 0-.78.289-1.367.868-1.764.579-.396 1.46-.613 2.645-.65l1.306-.04v-.404c0-.483-.114-.843-.342-1.08-.223-.241-.572-.362-1.046-.362-.387 0-.759.057-1.114.171a8.427 8.427 0 00-1.025.403l-.52-1.148c.41-.214.859-.376 1.347-.485.487-.114.948-.171 1.381-.171.961 0 1.686.21 2.173.629.493.419.739 1.077.739 1.975v5.093h-1.149zm-2.392-1.094c.583 0 1.05-.162 1.401-.485.356-.328.533-.786.533-1.374v-.657l-.97.041c-.757.028-1.308.156-1.655.383-.342.224-.512.568-.512 1.033 0 .337.1.599.3.786.201.182.502.273.903.273zM58.36 45.393c.08-.66.14-1.32.14-2 0-.68-.06-1.34-.14-2h3.38c.16.64.26 1.31.26 2s-.1 1.36-.26 2h-3.38zm-1.77 5.56c.6-1.11 1.06-2.31 1.38-3.56h2.95a8.03 8.03 0 01-4.33 3.56zm-.25-5.56h-4.68c-.1-.66-.16-1.32-.16-2 0-.68.06-1.35.16-2h4.68c.09.65.16 1.32.16 2 0 .68-.07 1.34-.16 2zM54 51.353c-.83-1.2-1.5-2.53-1.91-3.96h3.82c-.41 1.43-1.08 2.76-1.91 3.96zm-4-11.96h-2.92a7.923 7.923 0 014.32-3.56c-.6 1.11-1.05 2.31-1.4 3.56zm-2.92 8H50c.35 1.25.8 2.45 1.4 3.56a8.008 8.008 0 01-4.32-3.56zm-.82-2c-.16-.64-.26-1.31-.26-2s.1-1.36.26-2h3.38c-.08.66-.14 1.32-.14 2 0 .68.06 1.34.14 2h-3.38zm7.74-9.97c.83 1.2 1.5 2.54 1.91 3.97h-3.82c.41-1.43 1.08-2.77 1.91-3.97zm6.92 3.97h-2.95a15.649 15.649 0 00-1.38-3.56c1.84.63 3.37 1.9 4.33 3.56zm-6.92-6c-5.53 0-10 4.5-10 10a10 10 0 1010-10z" fill="#fff"/></g><defs><filter id="prefix__filter0_d" x="0" y=".393" width="194" height="91" filterUnits="userSpaceOnUse" color-interpolation-filters="sRGB"><feFlood flood-opacity="0" result="BackgroundImageFix"/><feColorMatrix in="SourceAlpha" values="0 0 0 0 0 0 0 0 0 0 0 0 0 0 0 0 0 0 127 0"/><feOffset dx="2" dy="2"/><feGaussianBlur stdDeviation="10"/><feColorMatrix values="0 0 0 0 0.47451 0 0 0 0 0.47451 0 0 0 0 0.47451 0 0 0 0.05 0"/><feBlend in2="BackgroundImageFix" result="effect1_dropShadow"/><feBlend in="SourceGraphic" in2="effect1_dropShadow" result="shape"/></filter><filter id="prefix__filter1_d" x="0" y=".393" width="194" height="91" filterUnits="userSpaceOnUse" color-interpolation-filters="sRGB"><feFlood flood-opacity="0" result="BackgroundImageFix"/><feColorMatrix in="SourceAlpha" values="0 0 0 0 0 0 0 0 0 0 0 0 0 0 0 0 0 0 127 0"/><feOffset dx="2" dy="2"/><feGaussianBlur stdDeviation="10"/><feColorMatrix values="0 0 0 0 0.47451 0 0 0 0 0.47451 0 0 0 0 0.47451 0 0 0 0.05 0"/><feBlend in2="BackgroundImageFix" result="effect1_dropShadow"/><feBlend in="SourceGraphic" in2="effect1_dropShadow" result="shape"/></filter></defs></svg>