<svg width="1167" height="400" fill="none" xmlns="http://www.w3.org/2000/svg"><path d="M0 81.646C0 42.41 31.415 10.397 70.644 9.659L583.5 0l512.86 9.659c39.22.738 70.64 32.75 70.64 71.987V326.63c0 40.295-33.07 72.746-73.36 71.987l-510.14-9.607-510.144 9.607C33.068 399.377 0 366.926 0 326.631V81.646z" fill="url(#prefix__paint0_linear)"/><mask id="prefix__a" maskUnits="userSpaceOnUse" x="0" y="0" width="1167" height="399"><path d="M0 81.646C0 42.41 31.415 10.397 70.644 9.659L583.5 0l512.86 9.659c39.22.738 70.64 32.75 70.64 71.987V326.63c0 40.295-33.07 72.746-73.36 71.987l-510.14-9.607-510.144 9.607C33.068 399.377 0 366.926 0 326.631V81.646z" fill="url(#prefix__paint1_linear)"/></mask><g mask="url(#prefix__a)"><rect width="232.846" height="243.258" rx="50" transform="matrix(.96442 .26436 -.24067 .9706 -5.179 216)" fill="#fff" fill-opacity=".1"/><rect x=".321" y="1.41" width="366.771" height="374.951" rx="49" transform="matrix(.83412 .55159 -.5129 .85845 -119.749 -12.978)" stroke="#fff" stroke-opacity=".1" stroke-width="2"/><path d="M1033.68 436.01L1051 260.254c2.25-22.812 27.11-35.59 45.63-23.45l141.42 92.715c19.13 12.542 17.23 42.139-3.4 52.93l-158.74 83.041c-20.8 10.881-44.57-5.715-42.23-29.48z" fill="#fff" fill-opacity=".1"/><path d="M948.363 515.73l18.182-184.455c2.249-22.812 27.11-35.59 45.625-23.45l148.42 97.304c19.13 12.543 17.23 42.139-3.4 52.93L990.593 545.21c-20.8 10.881-44.573-5.714-42.23-29.48z" stroke="#fff" stroke-opacity=".1"/></g><defs><linearGradient id="prefix__paint0_linear" x1="1156.44" y1="270.335" x2="30.873" y2="89.897" gradientUnits="userSpaceOnUse"><stop offset=".542" stop-color="#0096EB"/><stop offset=".948" stop-color="#0096EB" stop-opacity=".6"/></linearGradient><linearGradient id="prefix__paint1_linear" x1="1156.44" y1="270.335" x2="30.873" y2="89.897" gradientUnits="userSpaceOnUse"><stop offset=".542" stop-color="#0096EB"/><stop offset=".948" stop-color="#0096EB" stop-opacity=".6"/></linearGradient></defs></svg>